<svg xmlns="http://www.w3.org/2000/svg" width="158.181" height="158.181" viewBox="0 0 158.181 158.181">
  <path id="Icon_awesome-facebook-square" data-name="Icon awesome-facebook-square" d="M141.233,2.25H16.948A16.948,16.948,0,0,0,0,19.2V143.483a16.948,16.948,0,0,0,16.948,16.948h48.46V106.653H43.164V81.34H65.408V62.048c0-21.944,13.064-34.065,33.073-34.065a134.759,134.759,0,0,1,19.6,1.709V51.23H107.044c-10.878,0-14.272,6.751-14.272,13.675V81.34h24.285l-3.884,25.312h-20.4v53.778h48.46a16.948,16.948,0,0,0,16.948-16.948V19.2A16.948,16.948,0,0,0,141.233,2.25Z" transform="translate(0 -2.25)" fill="#1e4f81"/>
</svg>
