<svg xmlns="http://www.w3.org/2000/svg" width="165.75" height="159.181" viewBox="0 0 165.75 159.181">
  <path id="Icon_awesome-line" data-name="Icon awesome-line" d="M100.671,63.435V88.7a1.146,1.146,0,0,1-1.184,1.137H95.269a1.241,1.241,0,0,1-.962-.462L82.246,73.739V88.733a1.146,1.146,0,0,1-1.184,1.137H76.844a1.146,1.146,0,0,1-1.184-1.137V63.471a1.146,1.146,0,0,1,1.184-1.137h4.181a1.128,1.128,0,0,1,.962.5L94.048,78.465V63.471a1.146,1.146,0,0,1,1.184-1.137H99.45a1.151,1.151,0,0,1,1.221,1.1ZM70.333,62.3H66.115a1.146,1.146,0,0,0-1.184,1.137V88.7a1.146,1.146,0,0,0,1.184,1.137h4.218A1.146,1.146,0,0,0,71.517,88.7V63.435A1.169,1.169,0,0,0,70.333,62.3ZM60.158,83.475H48.652V63.435A1.146,1.146,0,0,0,47.468,62.3H43.25a1.146,1.146,0,0,0-1.184,1.137V88.7a1.024,1.024,0,0,0,.333.782,1.275,1.275,0,0,0,.814.32H60.121a1.146,1.146,0,0,0,1.184-1.137V84.612a1.161,1.161,0,0,0-1.147-1.137ZM122.87,62.3H105.962a1.17,1.17,0,0,0-1.184,1.137V88.7a1.169,1.169,0,0,0,1.184,1.137H122.87a1.146,1.146,0,0,0,1.184-1.137V84.647a1.146,1.146,0,0,0-1.184-1.137H111.363V79.247H122.87a1.146,1.146,0,0,0,1.184-1.137V74.023a1.146,1.146,0,0,0-1.184-1.137H111.363V68.623H122.87a1.146,1.146,0,0,0,1.184-1.137V63.435A1.221,1.221,0,0,0,122.87,62.3Zm42.88-31.019V132.65c-.037,15.918-13.615,28.816-30.227,28.78H29.968C13.393,161.4-.037,148.32,0,132.4V31.03C.037,15.112,13.652,2.215,30.227,2.25H135.782C152.357,2.286,165.787,15.326,165.75,31.279ZM142.959,74.841c0-25.938-27.082-47.044-60.343-47.044S22.273,48.9,22.273,74.841c0,23.238,21.459,42.709,50.465,46.4C79.8,122.7,78.99,125.189,77.4,134.32c-.259,1.457-1.221,5.721,5.217,3.127S117.357,117.8,130.047,103.8C138.779,94.561,142.959,85.216,142.959,74.841Z" transform="translate(0 -2.25)" fill="#31a01d"/>
</svg>
