<svg xmlns="http://www.w3.org/2000/svg" width="166" height="159" viewBox="0 0 166 159">
  <g id="グループ_1" data-name="グループ 1" transform="translate(-359 -2278)">
    <g id="長方形_2" data-name="長方形 2" transform="translate(359 2278)" fill="#2988c3" stroke="#707070" stroke-width="1">
      <rect width="166" height="159" rx="32" stroke="none"/>
      <rect x="0.5" y="0.5" width="165" height="158" rx="31.5" fill="none"/>
    </g>
    <path id="Icon_awesome-twitter" data-name="Icon awesome-twitter" d="M98.379,25.575c.07.974.07,1.948.07,2.922,0,29.708-22.612,63.939-63.939,63.939A63.506,63.506,0,0,1,0,82.349a46.491,46.491,0,0,0,5.427.278,45.006,45.006,0,0,0,27.9-9.6A22.512,22.512,0,0,1,12.315,57.441a28.34,28.34,0,0,0,4.244.348,23.768,23.768,0,0,0,5.914-.765A22.476,22.476,0,0,1,4.453,34.968V34.69A22.632,22.632,0,0,0,14.61,37.542,22.506,22.506,0,0,1,7.653,7.486,63.878,63.878,0,0,0,53.99,31a25.369,25.369,0,0,1-.557-5.148A22.494,22.494,0,0,1,92.326,10.477a44.245,44.245,0,0,0,14.263-5.427,22.412,22.412,0,0,1-9.88,12.384,45.051,45.051,0,0,0,12.941-3.479A48.308,48.308,0,0,1,98.379,25.575Z" transform="translate(387.175 2309.591)" fill="#f7eded"/>
  </g>
</svg>
